<svg width="134" height="134" viewBox="0 0 134 134" fill="none" xmlns="http://www.w3.org/2000/svg">
<path d="M64.3828 43.1833C64.3828 48.9649 59.6957 53.652 53.9141 53.652H48.6797V23.8035C48.6797 13.7433 56.6862 5.37276 66.7453 5.23562C69.6494 5.1961 72.3998 5.83443 74.8516 6.99934C68.6627 9.94001 64.3828 16.2467 64.3828 23.5544V43.1833ZM20.9375 66.738C20.9375 56.6199 29.1398 48.4176 39.2578 48.4176H23.5547C13.4366 48.4176 5.23438 56.6199 5.23438 66.738C5.23438 76.856 13.4366 85.0583 23.5547 85.0583H39.2578C29.1398 85.0583 20.9375 76.856 20.9375 66.738ZM64.3828 110.445V90.2926C64.3828 84.511 59.6957 79.8239 53.9141 79.8239H48.6797V110.196C48.6797 120.256 56.6862 128.627 66.7453 128.764C69.6494 128.803 72.3998 128.165 74.8516 127C68.6627 124.059 64.3828 117.753 64.3828 110.445Z" fill="#C6E1F2"/>
<path d="M67 134C54.0119 134 43.4453 123.433 43.4453 110.445V90.293H23.5547C10.5666 90.293 0 79.7263 0 66.7383C0 53.7502 10.5666 43.1836 23.5547 43.1836H43.4453V23.5547C43.4453 10.5666 54.0119 0 67 0C79.9881 0 90.5547 10.5666 90.5547 23.5547V43.1836H110.445C123.433 43.1836 134 53.7502 134 66.7383C134 69.6292 131.657 71.9727 128.766 71.9727C125.875 71.9727 123.531 69.6292 123.531 66.7383C123.531 59.5227 117.661 53.6523 110.445 53.6523H85.3203C82.4294 53.6523 80.0859 51.3089 80.0859 48.418V23.5547C80.0859 16.3391 74.2156 10.4688 67 10.4688C59.7844 10.4688 53.9141 16.3391 53.9141 23.5547V48.418C53.9141 51.3089 51.5706 53.6523 48.6797 53.6523H23.5547C16.3391 53.6523 10.4688 59.5227 10.4688 66.7383C10.4688 73.9539 16.3391 79.8242 23.5547 79.8242H48.6797C51.5706 79.8242 53.9141 82.1676 53.9141 85.0586V110.445C53.9141 117.661 59.7844 123.531 67 123.531C74.2156 123.531 80.0859 117.661 80.0859 110.445V85.0586C80.0859 82.1676 82.4294 79.8242 85.3203 79.8242C88.2113 79.8242 90.5547 82.1676 90.5547 85.0586V110.445C90.5547 123.433 79.9881 134 67 134Z" fill="#0023C4"/>
<path d="M110.445 90.2931H105.734C102.843 90.2931 100.5 87.9497 100.5 85.0588C100.5 82.1678 102.843 79.8244 105.734 79.8244H110.445C112.197 79.8244 113.958 79.4433 115.678 78.6919C118.327 77.5349 121.413 78.7438 122.57 81.3929C123.727 84.0417 122.518 87.1276 119.869 88.285C116.819 89.6176 113.648 90.2931 110.445 90.2931Z" fill="#FF5CF4"/>
</svg>
